<svg width="354" height="183" viewBox="0 0 354 183" fill="none" xmlns="http://www.w3.org/2000/svg">
<path d="M174 85.5362V110.384H183.041V85.2715C183.041 82.8956 184.982 80.97 187.377 80.97H200.269V72H187.644C180.108 72 174 78.0602 174 85.5362Z" fill="white"/>
<path d="M232.729 72.0001L223.7 89.0898L213.719 72.0001H203.278L218.72 98.4618L217.752 100.182C217.256 101.119 216.285 101.7 215.221 101.7H208.828V110.67H215.221C219.651 110.67 223.686 108.255 225.752 104.365L242.998 72.0001H232.729Z" fill="white"/>
<path d="M252.192 94.4089L257.767 83.8385C258.602 82.0952 260.398 80.9693 262.344 80.9693H265.036C265.664 80.9693 266.173 81.4746 266.173 82.0974V94.4089H252.192ZM268.392 72.0005H262.344C256.929 72.0005 251.927 75.1343 249.681 79.8335L233.555 110.401H243.756L247.461 103.379H266.173V110.401H275.214V78.768C275.214 75.03 272.16 72.0005 268.392 72.0005Z" fill="white"/>
<path d="M311.831 72.0001H291.359C287.592 72.0001 284.538 75.0307 284.538 78.7676V110.316H293.579V82.0894C293.579 81.4709 294.084 80.97 294.706 80.97H308.484C309.108 80.97 309.613 81.4709 309.613 82.0894V110.3H318.653V78.7676C318.653 75.0307 315.599 72.0001 311.831 72.0001Z" fill="white"/>
<path d="M87.8147 75.7231C75.1893 75.8839 34 77.4778 34 91.1917C34 105.934 81.5635 106.68 91.0992 106.68C100.634 106.68 148.197 105.934 148.197 91.1917C148.197 84.6542 139.615 81.6605 133.161 79.9779C126.121 78.1422 116.612 76.8112 106.113 76.1612C106.285 78.953 106.406 81.8224 106.48 84.7396C125.665 85.9919 135.812 89.2329 138.932 91.2028C134.707 93.937 118.417 98.1342 91.0992 98.1342C63.7323 98.1342 47.4337 93.9215 43.2423 91.1884C47.2211 88.573 62.131 84.5977 87.9232 84.2671C90.2797 84.2383 92.1656 82.3005 92.1346 79.9402C92.1047 77.5998 90.2011 75.722 87.8701 75.722C87.8512 75.722 87.8335 75.722 87.8147 75.7231Z" fill="white"/>
<path d="M75.6346 91.1917C75.6346 100.741 76.3799 148.381 91.0993 148.381C97.6229 148.381 100.612 139.792 102.292 133.33C104.126 126.275 105.455 116.742 106.106 106.218C102.944 106.408 100.02 106.522 97.541 106.589C96.2907 125.81 93.0538 135.977 91.0871 139.103C88.3574 134.869 84.1659 118.553 84.1659 91.1917C84.1659 63.8016 88.3663 47.48 91.0949 43.2673C93.7149 47.3546 97.7979 62.9364 98.0216 89.0399C98.0415 91.3881 99.9473 93.277 102.287 93.277H102.325C104.68 93.2559 106.574 91.3259 106.554 88.9678C106.434 75.0087 105.183 61.9293 103.03 52.1407C100.308 39.7645 96.5167 34 91.0993 34C76.3799 34 75.6346 81.6406 75.6346 91.1917Z" fill="white"/>
</svg>
